<svg width="17" height="16" viewBox="0 0 17 16" fill="none" xmlns="http://www.w3.org/2000/svg">
<circle cx="5.45456" cy="10.8182" r="1.09091" fill="#657786"/>
<circle cx="10.5454" cy="10.8182" r="1.09091" fill="#657786"/>
<path fill-rule="evenodd" clip-rule="evenodd" d="M16 9.72722C16 8.64576 15.2109 7.75413 14.1782 7.58176C13.2895 5.02176 10.8625 3.18176 8 3.18176C5.13745 3.18176 2.71055 5.02176 1.82182 7.58176C0.789091 7.75413 0 8.64576 0 9.72722C0 10.8087 0.789091 11.7003 1.82182 11.8727C2.71055 14.4327 5.13745 16.2727 8 16.2727C10.8625 16.2727 13.2895 14.4327 14.1782 11.8727C15.2109 11.7003 16 10.8087 16 9.72722Z" stroke="#667580" stroke-width="1.5" stroke-linecap="round" stroke-linejoin="round"/>
<path d="M8.00003 5.36364C7.81821 2.75782 9.21239 1.15127 11.6364 1" stroke="#667580" stroke-width="1.5" stroke-linecap="round" stroke-linejoin="round"/>
</svg>
